<mxfile host="app.diagrams.net" modified="2024-01-18T15:25:37.985Z" agent="Mozilla/5.0 (Windows NT 10.0; WOW64) AppleWebKit/537.36 (KHTML, like Gecko) Chrome/86.0.4240.198 Safari/537.36" etag="sCBx7LpspIO8mba6fGxg" version="22.1.21" type="github">
  <diagram name="第 1 页" id="h1wrtLjSeM-BwbI0MmPw">
    <mxGraphModel dx="1101" dy="639" grid="0" gridSize="10" guides="0" tooltips="1" connect="1" arrows="1" fold="1" page="1" pageScale="1" pageWidth="200000" pageHeight="200000" math="0" shadow="0">
      <root>
        <mxCell id="0" />
        <mxCell id="1" parent="0" />
        <mxCell id="V3yBwmJ4bqYdOkqxPURI-3" value="" style="edgeStyle=orthogonalEdgeStyle;rounded=0;orthogonalLoop=1;jettySize=auto;html=1;fontSize=16;" edge="1" parent="1" source="V3yBwmJ4bqYdOkqxPURI-1" target="V3yBwmJ4bqYdOkqxPURI-2">
          <mxGeometry relative="1" as="geometry" />
        </mxCell>
        <mxCell id="V3yBwmJ4bqYdOkqxPURI-1" value="系统管理员" style="shape=umlActor;verticalLabelPosition=bottom;verticalAlign=top;html=1;fontSize=16;" vertex="1" parent="1">
          <mxGeometry x="38" y="334" width="30" height="60" as="geometry" />
        </mxCell>
        <mxCell id="V3yBwmJ4bqYdOkqxPURI-2" value="普通用户" style="shape=umlActor;verticalLabelPosition=bottom;verticalAlign=top;html=1;fontSize=16;" vertex="1" parent="1">
          <mxGeometry x="38" y="543" width="30" height="60" as="geometry" />
        </mxCell>
        <mxCell id="V3yBwmJ4bqYdOkqxPURI-14" style="rounded=0;orthogonalLoop=1;jettySize=auto;html=1;exitX=0.992;exitY=0.265;exitDx=0;exitDy=0;dashed=1;exitPerimeter=0;" edge="1" parent="1" source="V3yBwmJ4bqYdOkqxPURI-5" target="V3yBwmJ4bqYdOkqxPURI-12">
          <mxGeometry relative="1" as="geometry" />
        </mxCell>
        <mxCell id="V3yBwmJ4bqYdOkqxPURI-16" value="&lt;font style=&quot;font-size: 16px;&quot;&gt;&amp;lt;&amp;lt;包含&amp;gt;&amp;gt;&lt;/font&gt;" style="edgeLabel;html=1;align=center;verticalAlign=middle;resizable=0;points=[];" vertex="1" connectable="0" parent="V3yBwmJ4bqYdOkqxPURI-14">
          <mxGeometry x="-0.0245" y="5" relative="1" as="geometry">
            <mxPoint x="-7" y="-12" as="offset" />
          </mxGeometry>
        </mxCell>
        <mxCell id="V3yBwmJ4bqYdOkqxPURI-5" value="&lt;font style=&quot;font-size: 16px;&quot;&gt;连接权限管理&lt;/font&gt;" style="ellipse;whiteSpace=wrap;html=1;" vertex="1" parent="1">
          <mxGeometry x="245" y="155" width="140" height="70" as="geometry" />
        </mxCell>
        <mxCell id="V3yBwmJ4bqYdOkqxPURI-6" value="&lt;font style=&quot;font-size: 16px;&quot;&gt;数据集权限管理&lt;/font&gt;" style="ellipse;whiteSpace=wrap;html=1;" vertex="1" parent="1">
          <mxGeometry x="245" y="276" width="140" height="70" as="geometry" />
        </mxCell>
        <mxCell id="V3yBwmJ4bqYdOkqxPURI-7" value="&lt;span style=&quot;font-size: 16px;&quot;&gt;用户管理&lt;/span&gt;" style="ellipse;whiteSpace=wrap;html=1;" vertex="1" parent="1">
          <mxGeometry x="245" y="440" width="140" height="70" as="geometry" />
        </mxCell>
        <mxCell id="V3yBwmJ4bqYdOkqxPURI-8" style="rounded=0;orthogonalLoop=1;jettySize=auto;html=1;exitX=1;exitY=0.3333333333333333;exitDx=0;exitDy=0;exitPerimeter=0;endArrow=none;endFill=0;entryX=0;entryY=0.7;entryDx=0;entryDy=0;entryPerimeter=0;" edge="1" parent="1" source="V3yBwmJ4bqYdOkqxPURI-1" target="V3yBwmJ4bqYdOkqxPURI-5">
          <mxGeometry relative="1" as="geometry">
            <mxPoint x="343" y="212" as="targetPoint" />
          </mxGeometry>
        </mxCell>
        <mxCell id="V3yBwmJ4bqYdOkqxPURI-9" style="rounded=0;orthogonalLoop=1;jettySize=auto;html=1;endArrow=none;endFill=0;entryX=0;entryY=0.5;entryDx=0;entryDy=0;" edge="1" parent="1" target="V3yBwmJ4bqYdOkqxPURI-6">
          <mxGeometry relative="1" as="geometry">
            <mxPoint x="68" y="355" as="sourcePoint" />
            <mxPoint x="353" y="222" as="targetPoint" />
          </mxGeometry>
        </mxCell>
        <mxCell id="V3yBwmJ4bqYdOkqxPURI-11" style="rounded=0;orthogonalLoop=1;jettySize=auto;html=1;endArrow=none;endFill=0;entryX=0;entryY=0.5;entryDx=0;entryDy=0;exitX=1;exitY=0.3333333333333333;exitDx=0;exitDy=0;exitPerimeter=0;" edge="1" parent="1" source="V3yBwmJ4bqYdOkqxPURI-1" target="V3yBwmJ4bqYdOkqxPURI-7">
          <mxGeometry relative="1" as="geometry">
            <mxPoint x="74" y="358" as="sourcePoint" />
            <mxPoint x="345" y="490" as="targetPoint" />
          </mxGeometry>
        </mxCell>
        <mxCell id="V3yBwmJ4bqYdOkqxPURI-12" value="&lt;font style=&quot;font-size: 16px;&quot;&gt;连接授权&lt;/font&gt;" style="ellipse;whiteSpace=wrap;html=1;" vertex="1" parent="1">
          <mxGeometry x="602" y="95" width="140" height="70" as="geometry" />
        </mxCell>
        <mxCell id="V3yBwmJ4bqYdOkqxPURI-13" value="&lt;span style=&quot;font-size: 16px;&quot;&gt;连接权限撤销&lt;/span&gt;" style="ellipse;whiteSpace=wrap;html=1;" vertex="1" parent="1">
          <mxGeometry x="604" y="171" width="140" height="70" as="geometry" />
        </mxCell>
        <mxCell id="V3yBwmJ4bqYdOkqxPURI-15" style="rounded=0;orthogonalLoop=1;jettySize=auto;html=1;entryX=0;entryY=0.5;entryDx=0;entryDy=0;dashed=1;exitX=0.971;exitY=0.712;exitDx=0;exitDy=0;exitPerimeter=0;" edge="1" parent="1" source="V3yBwmJ4bqYdOkqxPURI-5" target="V3yBwmJ4bqYdOkqxPURI-13">
          <mxGeometry relative="1" as="geometry">
            <mxPoint x="447" y="210" as="sourcePoint" />
            <mxPoint x="673" y="228" as="targetPoint" />
          </mxGeometry>
        </mxCell>
        <mxCell id="V3yBwmJ4bqYdOkqxPURI-17" value="&lt;font style=&quot;font-size: 16px;&quot;&gt;&amp;lt;&amp;lt;包含&amp;gt;&amp;gt;&lt;/font&gt;" style="edgeLabel;html=1;align=center;verticalAlign=middle;resizable=0;points=[];" vertex="1" connectable="0" parent="1">
          <mxGeometry x="518.7598443123551" y="180.00351300892993" as="geometry" />
        </mxCell>
        <mxCell id="V3yBwmJ4bqYdOkqxPURI-18" style="rounded=0;orthogonalLoop=1;jettySize=auto;html=1;exitX=1;exitY=0.5;exitDx=0;exitDy=0;dashed=1;" edge="1" parent="1" target="V3yBwmJ4bqYdOkqxPURI-20" source="V3yBwmJ4bqYdOkqxPURI-6">
          <mxGeometry relative="1" as="geometry">
            <mxPoint x="444" y="310" as="sourcePoint" />
          </mxGeometry>
        </mxCell>
        <mxCell id="V3yBwmJ4bqYdOkqxPURI-19" value="&lt;font style=&quot;font-size: 16px;&quot;&gt;&amp;lt;&amp;lt;包含&amp;gt;&amp;gt;&lt;/font&gt;" style="edgeLabel;html=1;align=center;verticalAlign=middle;resizable=0;points=[];" vertex="1" connectable="0" parent="V3yBwmJ4bqYdOkqxPURI-18">
          <mxGeometry x="-0.0245" y="5" relative="1" as="geometry">
            <mxPoint x="17" y="29" as="offset" />
          </mxGeometry>
        </mxCell>
        <mxCell id="V3yBwmJ4bqYdOkqxPURI-20" value="&lt;font style=&quot;font-size: 16px;&quot;&gt;数据集授权&lt;/font&gt;" style="ellipse;whiteSpace=wrap;html=1;" vertex="1" parent="1">
          <mxGeometry x="602" y="254" width="140" height="70" as="geometry" />
        </mxCell>
        <mxCell id="V3yBwmJ4bqYdOkqxPURI-21" value="&lt;span style=&quot;font-size: 16px;&quot;&gt;数据集权限撤销&lt;/span&gt;" style="ellipse;whiteSpace=wrap;html=1;" vertex="1" parent="1">
          <mxGeometry x="602" y="337" width="140" height="70" as="geometry" />
        </mxCell>
        <mxCell id="V3yBwmJ4bqYdOkqxPURI-22" style="rounded=0;orthogonalLoop=1;jettySize=auto;html=1;entryX=0;entryY=0.5;entryDx=0;entryDy=0;dashed=1;exitX=0.985;exitY=0.694;exitDx=0;exitDy=0;exitPerimeter=0;" edge="1" parent="1" target="V3yBwmJ4bqYdOkqxPURI-21" source="V3yBwmJ4bqYdOkqxPURI-6">
          <mxGeometry relative="1" as="geometry">
            <mxPoint x="445" y="310" as="sourcePoint" />
            <mxPoint x="671" y="328" as="targetPoint" />
          </mxGeometry>
        </mxCell>
        <mxCell id="V3yBwmJ4bqYdOkqxPURI-23" value="&lt;font style=&quot;font-size: 16px;&quot;&gt;&amp;lt;&amp;lt;包含&amp;gt;&amp;gt;&lt;/font&gt;" style="edgeLabel;html=1;align=center;verticalAlign=middle;resizable=0;points=[];" vertex="1" connectable="0" parent="1">
          <mxGeometry x="508.7598443123551" y="271.00351300892993" as="geometry" />
        </mxCell>
        <mxCell id="V3yBwmJ4bqYdOkqxPURI-24" value="&lt;span style=&quot;font-size: 16px;&quot;&gt;添加用户&lt;/span&gt;" style="ellipse;whiteSpace=wrap;html=1;" vertex="1" parent="1">
          <mxGeometry x="604" y="415" width="140" height="70" as="geometry" />
        </mxCell>
        <mxCell id="V3yBwmJ4bqYdOkqxPURI-25" value="&lt;span style=&quot;font-size: 16px;&quot;&gt;删除用户&lt;/span&gt;" style="ellipse;whiteSpace=wrap;html=1;" vertex="1" parent="1">
          <mxGeometry x="604" y="497" width="140" height="70" as="geometry" />
        </mxCell>
        <mxCell id="V3yBwmJ4bqYdOkqxPURI-26" value="&lt;span style=&quot;font-size: 16px;&quot;&gt;用户信息管理&lt;/span&gt;" style="ellipse;whiteSpace=wrap;html=1;" vertex="1" parent="1">
          <mxGeometry x="609" y="581" width="140" height="70" as="geometry" />
        </mxCell>
        <mxCell id="V3yBwmJ4bqYdOkqxPURI-27" value="&lt;span style=&quot;font-size: 16px;&quot;&gt;登录&lt;/span&gt;" style="ellipse;whiteSpace=wrap;html=1;" vertex="1" parent="1">
          <mxGeometry x="277" y="603" width="140" height="70" as="geometry" />
        </mxCell>
        <mxCell id="V3yBwmJ4bqYdOkqxPURI-28" style="rounded=0;orthogonalLoop=1;jettySize=auto;html=1;exitX=1;exitY=0.5;exitDx=0;exitDy=0;dashed=1;entryX=0;entryY=0.5;entryDx=0;entryDy=0;" edge="1" parent="1" source="V3yBwmJ4bqYdOkqxPURI-7" target="V3yBwmJ4bqYdOkqxPURI-24">
          <mxGeometry relative="1" as="geometry">
            <mxPoint x="395" y="321" as="sourcePoint" />
            <mxPoint x="499" y="314" as="targetPoint" />
          </mxGeometry>
        </mxCell>
        <mxCell id="V3yBwmJ4bqYdOkqxPURI-29" value="&lt;font style=&quot;font-size: 16px;&quot;&gt;&amp;lt;&amp;lt;包含&amp;gt;&amp;gt;&lt;/font&gt;" style="edgeLabel;html=1;align=center;verticalAlign=middle;resizable=0;points=[];" vertex="1" connectable="0" parent="V3yBwmJ4bqYdOkqxPURI-28">
          <mxGeometry x="-0.0245" y="5" relative="1" as="geometry">
            <mxPoint x="-8" y="-10" as="offset" />
          </mxGeometry>
        </mxCell>
        <mxCell id="V3yBwmJ4bqYdOkqxPURI-30" style="rounded=0;orthogonalLoop=1;jettySize=auto;html=1;exitX=0.989;exitY=0.634;exitDx=0;exitDy=0;dashed=1;exitPerimeter=0;" edge="1" parent="1" source="V3yBwmJ4bqYdOkqxPURI-7">
          <mxGeometry relative="1" as="geometry">
            <mxPoint x="395" y="485" as="sourcePoint" />
            <mxPoint x="604" y="532" as="targetPoint" />
          </mxGeometry>
        </mxCell>
        <mxCell id="V3yBwmJ4bqYdOkqxPURI-31" value="&lt;font style=&quot;font-size: 16px;&quot;&gt;&amp;lt;&amp;lt;包含&amp;gt;&amp;gt;&lt;/font&gt;" style="edgeLabel;html=1;align=center;verticalAlign=middle;resizable=0;points=[];" vertex="1" connectable="0" parent="V3yBwmJ4bqYdOkqxPURI-30">
          <mxGeometry x="-0.0245" y="5" relative="1" as="geometry">
            <mxPoint x="15" y="-7" as="offset" />
          </mxGeometry>
        </mxCell>
        <mxCell id="V3yBwmJ4bqYdOkqxPURI-32" style="rounded=0;orthogonalLoop=1;jettySize=auto;html=1;dashed=1;entryX=1;entryY=0.5;entryDx=0;entryDy=0;exitX=0;exitY=0.5;exitDx=0;exitDy=0;" edge="1" parent="1" source="V3yBwmJ4bqYdOkqxPURI-26" target="V3yBwmJ4bqYdOkqxPURI-27">
          <mxGeometry relative="1" as="geometry">
            <mxPoint x="825" y="643" as="sourcePoint" />
            <mxPoint x="565" y="600" as="targetPoint" />
          </mxGeometry>
        </mxCell>
        <mxCell id="V3yBwmJ4bqYdOkqxPURI-33" value="&lt;font style=&quot;font-size: 16px;&quot;&gt;&amp;lt;&amp;lt;扩展&amp;gt;&amp;gt;&lt;/font&gt;" style="edgeLabel;html=1;align=center;verticalAlign=middle;resizable=0;points=[];" vertex="1" connectable="0" parent="V3yBwmJ4bqYdOkqxPURI-32">
          <mxGeometry x="-0.0245" y="5" relative="1" as="geometry">
            <mxPoint x="-19" y="-23" as="offset" />
          </mxGeometry>
        </mxCell>
        <mxCell id="V3yBwmJ4bqYdOkqxPURI-34" style="rounded=0;orthogonalLoop=1;jettySize=auto;html=1;endArrow=none;endFill=0;entryX=0;entryY=0.5;entryDx=0;entryDy=0;exitX=1;exitY=0.3333333333333333;exitDx=0;exitDy=0;exitPerimeter=0;" edge="1" parent="1" source="V3yBwmJ4bqYdOkqxPURI-2" target="V3yBwmJ4bqYdOkqxPURI-27">
          <mxGeometry relative="1" as="geometry">
            <mxPoint x="78" y="364" as="sourcePoint" />
            <mxPoint x="255" y="485" as="targetPoint" />
          </mxGeometry>
        </mxCell>
        <mxCell id="V3yBwmJ4bqYdOkqxPURI-42" value="&lt;span style=&quot;font-size: 16px;&quot;&gt;修改用户账号&lt;/span&gt;" style="ellipse;whiteSpace=wrap;html=1;" vertex="1" parent="1">
          <mxGeometry x="879" y="667" width="140" height="70" as="geometry" />
        </mxCell>
        <mxCell id="V3yBwmJ4bqYdOkqxPURI-45" value="&lt;span style=&quot;font-size: 16px;&quot;&gt;修改密码&lt;/span&gt;" style="ellipse;whiteSpace=wrap;html=1;" vertex="1" parent="1">
          <mxGeometry x="879" y="587" width="140" height="70" as="geometry" />
        </mxCell>
        <mxCell id="V3yBwmJ4bqYdOkqxPURI-46" value="&lt;span style=&quot;font-size: 16px;&quot;&gt;修改用户权限&lt;/span&gt;" style="ellipse;whiteSpace=wrap;html=1;" vertex="1" parent="1">
          <mxGeometry x="879" y="502" width="140" height="71" as="geometry" />
        </mxCell>
        <mxCell id="V3yBwmJ4bqYdOkqxPURI-48" style="rounded=0;orthogonalLoop=1;jettySize=auto;html=1;exitX=0.928;exitY=0.784;exitDx=0;exitDy=0;dashed=1;exitPerimeter=0;entryX=0;entryY=0.5;entryDx=0;entryDy=0;" edge="1" parent="1" target="V3yBwmJ4bqYdOkqxPURI-26">
          <mxGeometry relative="1" as="geometry">
            <mxPoint x="385" y="505" as="sourcePoint" />
            <mxPoint x="619" y="626" as="targetPoint" />
          </mxGeometry>
        </mxCell>
        <mxCell id="V3yBwmJ4bqYdOkqxPURI-49" value="&lt;font style=&quot;font-size: 16px;&quot;&gt;&amp;lt;&amp;lt;包含&amp;gt;&amp;gt;&lt;/font&gt;" style="edgeLabel;html=1;align=center;verticalAlign=middle;resizable=0;points=[];" vertex="1" connectable="0" parent="V3yBwmJ4bqYdOkqxPURI-48">
          <mxGeometry x="-0.0245" y="5" relative="1" as="geometry">
            <mxPoint x="28" y="-6" as="offset" />
          </mxGeometry>
        </mxCell>
        <mxCell id="V3yBwmJ4bqYdOkqxPURI-51" style="rounded=0;orthogonalLoop=1;jettySize=auto;html=1;exitX=1;exitY=0.5;exitDx=0;exitDy=0;dashed=1;entryX=0;entryY=0.5;entryDx=0;entryDy=0;" edge="1" parent="1" source="V3yBwmJ4bqYdOkqxPURI-26" target="V3yBwmJ4bqYdOkqxPURI-46">
          <mxGeometry relative="1" as="geometry">
            <mxPoint x="393" y="494" as="sourcePoint" />
            <mxPoint x="614" y="542" as="targetPoint" />
          </mxGeometry>
        </mxCell>
        <mxCell id="V3yBwmJ4bqYdOkqxPURI-52" value="&lt;font style=&quot;font-size: 16px;&quot;&gt;&amp;lt;&amp;lt;包含&amp;gt;&amp;gt;&lt;/font&gt;" style="edgeLabel;html=1;align=center;verticalAlign=middle;resizable=0;points=[];" vertex="1" connectable="0" parent="V3yBwmJ4bqYdOkqxPURI-51">
          <mxGeometry x="-0.0245" y="5" relative="1" as="geometry">
            <mxPoint x="-5" y="-12" as="offset" />
          </mxGeometry>
        </mxCell>
        <mxCell id="V3yBwmJ4bqYdOkqxPURI-54" style="rounded=0;orthogonalLoop=1;jettySize=auto;html=1;exitX=1;exitY=0.5;exitDx=0;exitDy=0;dashed=1;" edge="1" parent="1" source="V3yBwmJ4bqYdOkqxPURI-26" target="V3yBwmJ4bqYdOkqxPURI-45">
          <mxGeometry relative="1" as="geometry">
            <mxPoint x="759" y="626" as="sourcePoint" />
            <mxPoint x="840" y="559" as="targetPoint" />
          </mxGeometry>
        </mxCell>
        <mxCell id="V3yBwmJ4bqYdOkqxPURI-55" value="&lt;font style=&quot;font-size: 16px;&quot;&gt;&amp;lt;&amp;lt;包含&amp;gt;&amp;gt;&lt;/font&gt;" style="edgeLabel;html=1;align=center;verticalAlign=middle;resizable=0;points=[];" vertex="1" connectable="0" parent="V3yBwmJ4bqYdOkqxPURI-54">
          <mxGeometry x="-0.0245" y="5" relative="1" as="geometry">
            <mxPoint x="11" y="-8" as="offset" />
          </mxGeometry>
        </mxCell>
        <mxCell id="V3yBwmJ4bqYdOkqxPURI-56" style="rounded=0;orthogonalLoop=1;jettySize=auto;html=1;dashed=1;entryX=0.038;entryY=0.313;entryDx=0;entryDy=0;entryPerimeter=0;" edge="1" parent="1" target="V3yBwmJ4bqYdOkqxPURI-42">
          <mxGeometry relative="1" as="geometry">
            <mxPoint x="748" y="620" as="sourcePoint" />
            <mxPoint x="857" y="634" as="targetPoint" />
          </mxGeometry>
        </mxCell>
        <mxCell id="V3yBwmJ4bqYdOkqxPURI-57" value="&lt;font style=&quot;font-size: 16px;&quot;&gt;&amp;lt;&amp;lt;包含&amp;gt;&amp;gt;&lt;/font&gt;" style="edgeLabel;html=1;align=center;verticalAlign=middle;resizable=0;points=[];" vertex="1" connectable="0" parent="V3yBwmJ4bqYdOkqxPURI-56">
          <mxGeometry x="-0.0245" y="5" relative="1" as="geometry">
            <mxPoint x="11" y="-8" as="offset" />
          </mxGeometry>
        </mxCell>
      </root>
    </mxGraphModel>
  </diagram>
</mxfile>
